<svg width="360" height="360" viewBox="0 0 360 360" fill="none" xmlns="http://www.w3.org/2000/svg">
  <rect width="360" height="360" rx="28" fill="#FFFAF1"/>
  <rect x="18" y="18" width="324" height="324" rx="22" fill="#FFFFFF" stroke="#254D3A" stroke-opacity="0.16" stroke-width="4"/>
  <g fill="#254D3A">
    <rect x="42" y="42" width="82" height="82" rx="8"/>
    <rect x="58" y="58" width="50" height="50" rx="4" fill="#FFFFFF"/>
    <rect x="70" y="70" width="26" height="26" rx="2"/>
    <rect x="236" y="42" width="82" height="82" rx="8"/>
    <rect x="252" y="58" width="50" height="50" rx="4" fill="#FFFFFF"/>
    <rect x="264" y="70" width="26" height="26" rx="2"/>
    <rect x="42" y="236" width="82" height="82" rx="8"/>
    <rect x="58" y="252" width="50" height="50" rx="4" fill="#FFFFFF"/>
    <rect x="70" y="264" width="26" height="26" rx="2"/>
    <rect x="150" y="46" width="18" height="18" rx="3"/>
    <rect x="184" y="46" width="28" height="18" rx="3"/>
    <rect x="146" y="78" width="22" height="18" rx="3"/>
    <rect x="184" y="82" width="18" height="42" rx="3"/>
    <rect x="214" y="146" width="18" height="18" rx="3"/>
    <rect x="246" y="146" width="44" height="18" rx="3"/>
    <rect x="306" y="146" width="12" height="44" rx="3"/>
    <rect x="146" y="146" width="44" height="18" rx="3"/>
    <rect x="146" y="180" width="18" height="44" rx="3"/>
    <rect x="178" y="180" width="18" height="18" rx="3"/>
    <rect x="210" y="178" width="28" height="28" rx="3"/>
    <rect x="254" y="180" width="18" height="48" rx="3"/>
    <rect x="286" y="210" width="32" height="18" rx="3"/>
    <rect x="146" y="246" width="18" height="72" rx="3"/>
    <rect x="178" y="246" width="44" height="18" rx="3"/>
    <rect x="210" y="278" width="18" height="40" rx="3"/>
    <rect x="244" y="246" width="74" height="18" rx="3"/>
    <rect x="244" y="280" width="18" height="38" rx="3"/>
    <rect x="278" y="278" width="40" height="40" rx="3"/>
    <rect x="54" y="150" width="18" height="18" rx="3"/>
    <rect x="88" y="150" width="36" height="18" rx="3"/>
    <rect x="54" y="184" width="70" height="18" rx="3"/>
  </g>
  <rect x="130" y="130" width="100" height="100" rx="18" fill="#FFFAF1" stroke="#B88938" stroke-width="4"/>
  <text x="180" y="175" text-anchor="middle" font-family="Arial, sans-serif" font-size="26" font-weight="800" fill="#254D3A">MNH</text>
  <text x="180" y="201" text-anchor="middle" font-family="Arial, sans-serif" font-size="13" font-weight="700" fill="#657264">PAYMENT QR</text>
</svg>
